# Blender 4.0.1
# www.blender.org
mtllib body_medium_1.mtl
o Cube.001
v -0.139402 -0.203973 0.167441
v -0.139402 -0.203973 -0.167441
v 0.139402 -0.203973 0.167441
v 0.139402 -0.203973 -0.167441
v -0.139402 0.240537 0.243845
v -0.139402 0.365292 0.172184
v -0.139402 0.365292 -0.172184
v -0.139402 0.240537 -0.243845
v 0.139402 0.365292 0.172184
v 0.139402 0.240537 0.243845
v 0.139402 0.240537 -0.243845
v 0.139402 0.365292 -0.172184
vn -0.0000 1.0000 -0.0000
vn 1.0000 -0.0000 -0.0000
vn -1.0000 -0.0000 -0.0000
vn -0.0000 -1.0000 -0.0000
vn -0.0000 -0.1694 -0.9855
vn -0.0000 0.4981 -0.8671
vn -0.0000 0.4981 0.8671
vn -0.0000 -0.1694 0.9855
vt 0.625000 0.543870
vt 0.875000 0.543870
vt 0.875000 0.706130
vt 0.625000 0.706130
vt 0.375000 0.500000
vt 0.570212 0.500000
vt 0.570212 0.750000
vt 0.375000 0.750000
vt 0.375000 0.000000
vt 0.570212 0.000000
vt 0.625000 0.043870
vt 0.625000 0.206130
vt 0.570212 0.250000
vt 0.375000 0.250000
vt 0.125000 0.500000
vt 0.125000 0.750000
vt 0.570212 0.250000
vt 0.570212 0.500000
vt 0.625000 0.250000
vt 0.625000 0.500000
vt 0.625000 0.750000
vt 0.625000 1.000000
vt 0.570212 1.000000
vt 0.570212 0.750000
vt 0.375000 1.000000
s 0
f 12/1/1 7/2/1 6/3/1 9/4/1
f 4/5/2 11/6/2 12/1/2 9/4/2 10/7/2 3/8/2
f 1/9/3 5/10/3 6/11/3 7/12/3 8/13/3 2/14/3
f 2/15/4 4/5/4 3/8/4 1/16/4
f 2/14/5 8/17/5 11/18/5 4/5/5
f 7/19/6 12/20/6 11/18/6 8/17/6
f 9/21/7 6/22/7 5/23/7 10/24/7
f 3/8/8 10/24/8 5/23/8 1/25/8
o Sphere.002
v 0.000000 0.657228 -0.105461
v 0.000000 0.543799 -0.149145
v 0.000000 0.430370 -0.105461
v 0.105037 0.657228 -0.052731
v 0.148545 0.543799 -0.074572
v 0.105037 0.430370 -0.052731
v 0.105037 0.657228 0.052731
v 0.148545 0.543799 0.074572
v 0.105037 0.430370 0.052731
v -0.000000 0.657228 0.105461
v -0.000000 0.543799 0.149145
v -0.000000 0.430370 0.105461
v 0.000000 0.408005 0.000000
v 0.000000 0.679593 0.000000
v -0.105037 0.657228 0.052731
v -0.148545 0.543799 0.074572
v -0.105037 0.430370 0.052731
v -0.105037 0.657228 -0.052731
v -0.148545 0.543799 -0.074572
v -0.105037 0.430370 -0.052731
vn 0.4242 -0.3254 -0.8451
vn 0.1036 0.9730 -0.2063
vn 0.1036 -0.9730 -0.2063
vn 0.4242 0.3254 -0.8451
vn 0.9337 -0.3581 -0.0000
vn 0.2083 0.9781 -0.0000
vn 0.2083 -0.9781 -0.0000
vn 0.9337 0.3581 -0.0000
vn 0.4242 -0.3254 0.8451
vn 0.1036 0.9730 0.2063
vn 0.1036 -0.9730 0.2063
vn 0.4242 0.3254 0.8451
vn -0.4242 -0.3254 0.8451
vn -0.1036 0.9730 0.2063
vn -0.1036 -0.9730 0.2063
vn -0.4242 0.3254 0.8451
vn -0.9337 -0.3581 -0.0000
vn -0.2083 0.9781 -0.0000
vn -0.2083 -0.9781 -0.0000
vn -0.9337 0.3581 -0.0000
vn -0.4242 0.3254 -0.8451
vn -0.4242 -0.3254 -0.8451
vn -0.1036 0.9730 -0.2063
vn -0.1036 -0.9730 -0.2063
vt 0.666667 0.250000
vt 0.666667 0.500000
vt 0.500000 0.500000
vt 0.500000 0.250000
vt 0.666667 0.750000
vt 0.583333 1.000000
vt 0.500000 0.750000
vt 0.583333 0.000000
vt 0.333333 0.500000
vt 0.333333 0.250000
vt 0.416667 1.000000
vt 0.333333 0.750000
vt 0.416667 0.000000
vt 0.166667 0.500000
vt 0.166667 0.250000
vt 0.250000 1.000000
vt 0.166667 0.750000
vt 0.250000 0.000000
vt 0.000000 0.500000
vt 0.000000 0.250000
vt 0.083333 1.000000
vt 0.000000 0.750000
vt 0.083333 0.000000
vt 1.000000 0.250000
vt 1.000000 0.500000
vt 0.833333 0.500000
vt 0.833333 0.250000
vt 1.000000 0.750000
vt 0.916667 1.000000
vt 0.833333 0.750000
vt 0.916667 0.000000
vt 0.750000 1.000000
vt 0.750000 0.000000
s 0
f 15/26/9 14/27/9 17/28/9 18/29/9
f 13/30/10 26/31/10 16/32/10
f 25/33/11 15/26/11 18/29/11
f 14/27/12 13/30/12 16/32/12 17/28/12
f 18/29/13 17/28/13 20/34/13 21/35/13
f 16/32/14 26/36/14 19/37/14
f 25/38/15 18/29/15 21/35/15
f 17/28/16 16/32/16 19/37/16 20/34/16
f 21/35/17 20/34/17 23/39/17 24/40/17
f 19/37/18 26/41/18 22/42/18
f 25/43/19 21/35/19 24/40/19
f 20/34/20 19/37/20 22/42/20 23/39/20
f 24/40/21 23/39/21 28/44/21 29/45/21
f 22/42/22 26/46/22 27/47/22
f 25/48/23 24/40/23 29/45/23
f 23/39/24 22/42/24 27/47/24 28/44/24
f 29/49/25 28/50/25 31/51/25 32/52/25
f 27/53/26 26/54/26 30/55/26
f 25/56/27 29/49/27 32/52/27
f 28/50/28 27/53/28 30/55/28 31/51/28
f 31/51/29 30/55/29 13/30/29 14/27/29
f 32/52/30 31/51/30 14/27/30 15/26/30
f 30/55/31 26/57/31 13/30/31
f 25/58/32 32/52/32 15/26/32
